<svg width="35" height="36" viewBox="0 0 35 36" fill="none" xmlns="http://www.w3.org/2000/svg">
<g clip-path="url(#clip0_2_92)">
<path d="M6.85506 10.8134L9.94055 17.0328C10.1138 17.3891 10.0916 17.7778 9.89308 18.0753L6.33085 24.0143C5.86025 24.838 6.52309 25.8033 7.48234 25.6767L14.5684 24.8499C14.9413 24.8204 15.3301 24.9325 15.5931 25.2018L20.3583 30.3333C20.9889 31.0151 22.1809 30.6976 22.3684 29.8165L23.6698 23.0642C23.7273 22.6937 23.9792 22.3794 24.3177 22.2432L30.8056 19.4619C31.6792 19.0688 31.7458 17.9028 30.8995 17.4652L24.6238 14.1316C24.2712 13.9492 24.0798 13.628 24.0133 13.2379L23.2755 6.45392C23.1799 5.51524 22.0142 5.09038 21.3148 5.75141L16.1528 10.4631C15.8837 10.7242 15.4746 10.8239 15.121 10.7299L8.14989 9.25981C7.19477 9.0328 6.43901 9.97582 6.85506 10.8134Z" fill="url(#paint0_linear_2_92)"/>
<path opacity="0.05" d="M8.14977 9.25971L15.1209 10.7298C15.4926 10.7886 15.8835 10.724 16.1526 10.4629L21.3329 5.7162C21.7631 5.31621 22.3838 5.32588 22.8059 5.63305C21.0082 7.72699 22.4647 12.1704 21.0298 13.5626C20.1864 14.416 19.3964 15.2525 19.0497 16.0958C18.5388 17.3433 18.453 18.6328 16.8418 19.934C15.678 20.8884 11.1339 21.2066 9.84623 22.1415C8.89811 22.8517 8.62189 23.7315 6.88777 24.9247C6.74468 25.0286 6.56632 25.1142 6.40622 25.1647C6.17949 24.8252 6.1312 24.4001 6.34887 23.9791L9.89297 18.0752C10.0915 17.7776 10.0784 17.3707 9.94043 17.0327L6.85485 10.8133C6.43889 9.97571 7.1946 9.03256 8.14977 9.25971Z" fill="#351656"/>
</g>
<defs>
<linearGradient id="paint0_linear_2_92" x1="11.9542" y1="28.2366" x2="23.4628" y2="5.97776" gradientUnits="userSpaceOnUse">
<stop stop-color="#FBB40D"/>
<stop offset="1" stop-color="#FB710D"/>
</linearGradient>
<clipPath id="clip0_2_92">
<rect width="26.0045" height="25.9563" fill="white" transform="translate(35 11.9214) rotate(117.341)"/>
</clipPath>
</defs>
</svg>
