<svg width="18" height="17" viewBox="0 0 18 17" fill="none" xmlns="http://www.w3.org/2000/svg">
<g clip-path="url(#clip0_2_83)">
<path d="M4.11345 5.36709L5.52496 8.33455C5.60417 8.50457 5.5911 8.69149 5.49562 8.83575L3.77816 11.713C3.551 12.112 3.85671 12.5713 4.30933 12.504L7.65218 12.0593C7.82797 12.0426 8.01035 12.0939 8.13239 12.2215L10.3423 14.6551C10.6347 14.9784 11.1982 14.8179 11.2924 14.3933L11.9505 11.1404C11.9801 10.962 12.1008 10.8093 12.2612 10.7416L15.3354 9.36189C15.7495 9.16717 15.7886 8.6065 15.393 8.40194L12.4597 6.84229C12.2948 6.75705 12.2068 6.60398 12.1782 6.41702L11.8761 3.16255C11.8374 2.7122 11.2912 2.51588 10.9574 2.83816L8.49469 5.1365C8.36623 5.26372 8.17288 5.31436 8.00697 5.27161L4.73368 4.61197C4.28537 4.50929 3.92312 4.96744 4.11345 5.36709Z" fill="url(#paint0_linear_2_83)"/>
<path opacity="0.05" d="M4.73363 4.61194L8.00692 5.27157C8.18161 5.29734 8.36614 5.26366 8.49461 5.13643L10.9661 2.82114C11.1715 2.62608 11.4637 2.62657 11.6604 2.77133C10.7998 3.78941 11.456 5.9145 10.7709 6.59304C10.3679 7.00868 9.99025 7.41586 9.82134 7.82339C9.57237 8.42617 9.52333 9.04631 8.75577 9.68224C8.20126 10.1486 6.05905 10.3319 5.44632 10.7897C4.99503 11.1373 4.85905 11.5618 4.03435 12.1467C3.96626 12.1976 3.88169 12.2399 3.80595 12.2653C3.70144 12.1037 3.68155 11.8998 3.78688 11.696L5.49557 8.83572C5.59107 8.69142 5.58763 8.49601 5.52491 8.33452L4.11336 5.36704C3.92307 4.9674 4.2853 4.5092 4.73363 4.61194Z" fill="#351656"/>
</g>
<defs>
<linearGradient id="paint0_linear_2_83" x1="6.39827" y1="13.704" x2="11.9675" y2="2.93253" gradientUnits="userSpaceOnUse">
<stop stop-color="#FBB40D"/>
<stop offset="1" stop-color="#FB710D"/>
</linearGradient>
<clipPath id="clip0_2_83">
<rect width="12.5841" height="12.1346" fill="white" transform="translate(17.3613 5.71094) rotate(117.341)"/>
</clipPath>
</defs>
</svg>
