<svg width="100" height="101" viewBox="0 0 100 101" fill="none" xmlns="http://www.w3.org/2000/svg">
<path d="M96.3284 78.0868L84.6799 53.5977C84.0263 52.1946 84.1341 50.652 84.922 49.4615L99.0954 25.7166C100.97 22.4245 98.4472 18.6341 94.7119 19.1888L67.125 22.859C65.6743 22.9966 64.1691 22.5733 63.162 21.5202L44.925 1.43714C42.5115 -1.23117 37.8611 0.093436 37.0838 3.5976L31.6525 30.442C31.4086 31.9142 30.4122 33.1744 29.0888 33.7332L3.719 45.1195C0.301969 46.7264 -0.0213802 51.3534 3.24371 53.0416L27.4508 65.9126C28.8113 66.616 29.5374 67.8793 29.7742 69.4222L32.2669 96.2798C32.5867 99.9963 37.0939 101.616 39.8485 98.9568L60.1721 79.9897C61.2323 78.9398 62.8279 78.5219 64.197 78.8747L91.21 84.3184C94.9097 85.1657 97.8991 81.3849 96.3284 78.0868Z" fill="url(#paint0_linear_2_81)"/>
<defs>
<linearGradient id="paint0_linear_2_81" x1="77.4729" y1="9.28606" x2="31.5126" y2="98.1781" gradientUnits="userSpaceOnUse">
<stop stop-color="#FBB40D"/>
<stop offset="1" stop-color="#FB710D"/>
</linearGradient>
</defs>
</svg>
