<svg width="42" height="42" viewBox="0 0 42 42" fill="none" xmlns="http://www.w3.org/2000/svg">
<path d="M40.2308 32.395L35.4048 22.2491C35.134 21.6678 35.1786 21.0287 35.5051 20.5354L41.3772 10.6978C42.1539 9.33384 41.1086 7.76345 39.5611 7.99329L28.1317 9.51385C27.5307 9.57087 26.9071 9.39549 26.4898 8.9592L18.9341 0.638684C17.9342 -0.466814 16.0075 0.0819772 15.6855 1.53377L13.4353 12.6555C13.3342 13.2655 12.9214 13.7876 12.3731 14.0191L1.86228 18.7365C0.446582 19.4023 0.312616 21.3192 1.66536 22.0187L11.6945 27.3512C12.2581 27.6426 12.559 28.166 12.6571 28.8052L13.6898 39.9325C13.8223 41.4722 15.6897 42.1435 16.8309 41.0416L25.2511 33.1834C25.6903 32.7484 26.3514 32.5753 26.9186 32.7214L38.1102 34.9768C39.643 35.3279 40.8816 33.7614 40.2308 32.395Z" fill="url(#paint0_linear_2_105)"/>
<defs>
<linearGradient id="paint0_linear_2_105" x1="32.4189" y1="3.89053" x2="13.3773" y2="40.7189" gradientUnits="userSpaceOnUse">
<stop stop-color="#FBB40D"/>
<stop offset="1" stop-color="#FB710D"/>
</linearGradient>
</defs>
</svg>
