<svg width="28" height="27" viewBox="0 0 28 27" fill="none" xmlns="http://www.w3.org/2000/svg">
<path d="M12.8586 26.5355L17.2813 20.7132C17.5364 20.3829 17.9192 20.2177 18.3019 20.259L25.7439 20.7132C26.7645 20.7545 27.3599 19.6809 26.7645 18.855L22.4694 12.7024C22.2568 12.372 22.1718 11.9591 22.2993 11.5875L24.8509 4.73283C25.1911 3.82438 24.298 2.87464 23.3625 3.1224L16.2607 5.14575C15.8779 5.26963 15.4527 5.18705 15.155 4.93929L9.28642 0.273184C8.47843 -0.346211 7.33023 0.149305 7.33023 1.14034L7.24518 8.53178C7.24518 8.94471 7.03255 9.27505 6.69234 9.52281L0.568621 13.4456C-0.281896 13.9824 -0.111792 15.2625 0.866302 15.5929L7.92559 18.1117C8.30833 18.2356 8.60601 18.566 8.69106 18.9376L10.7323 26.0813C10.9875 27.0723 12.2632 27.3201 12.8586 26.5355Z" fill="url(#paint0_linear_2_75)"/>
<defs>
<linearGradient id="paint0_linear_2_75" x1="27.0015" y1="13.5" x2="0.0205688" y2="13.5" gradientUnits="userSpaceOnUse">
<stop stop-color="#FBB40D"/>
<stop offset="1" stop-color="#FB710D"/>
</linearGradient>
</defs>
</svg>
